<svg aria-hidden="true" style="position:absolute;width:0;height:0;overflow:hidden" xmlns="http://www.w3.org/2000/svg">
  <defs>
    <symbol id="icon-camera" viewBox="0 0 24 24">
      <path d="M24 19V8a2.997 2.997 0 0 0-3-3h-3.465l-1.703-2.555A1 1 0 0 0 15 2H9c-.326.002-.64.158-.832.445L6.465 5H3a2.997 2.997 0 0 0-3 3v11a2.997 2.997 0 0 0 3 3h18a2.997 2.997 0 0 0 3-3zm-2 0c0 .276-.111.525-.293.707S21.276 20 21 20H3c-.276 0-.525-.111-.707-.293S2 19.276 2 19V8c0-.276.111-.525.293-.707S2.724 7 3 7h4a1 1 0 0 0 .832-.445L9.535 4h4.93l1.703 2.555c.192.287.506.443.832.445h4c.276 0 .525.111.707.293S22 7.724 22 8zm-5-6c0-1.38-.561-2.632-1.464-3.536S13.38 8 12 8s-2.632.561-3.536 1.464S7 11.62 7 13s.561 2.632 1.464 3.536S10.62 18 12 18s2.632-.561 3.536-1.464S17 14.38 17 13zm-2 0c0 .829-.335 1.577-.879 2.121S12.829 16 12 16s-1.577-.335-2.121-.879S9 13.829 9 13s.335-1.577.879-2.121S11.171 10 12 10s1.577.335 2.121.879S15 12.171 15 13z"/>
    </symbol>
    <symbol id="icon-dots-grid" viewBox="0 0 32 32">
      <path stroke-linejoin="round" stroke-linecap="round" stroke-width="2.667" d="M16 8a1.333 1.333 0 1 0 0-2.667A1.333 1.333 0 0 0 16 8zM16 17.333a1.333 1.333 0 1 0 0-2.667 1.333 1.333 0 0 0 0 2.667zM16 26.667A1.333 1.333 0 1 0 16 24a1.333 1.333 0 0 0 0 2.667zM25.333 8a1.333 1.333 0 1 0 0-2.667 1.333 1.333 0 0 0 0 2.667zM25.333 17.333a1.333 1.333 0 1 0 0-2.667 1.333 1.333 0 0 0 0 2.667zM25.333 26.667a1.333 1.333 0 1 0 0-2.667 1.333 1.333 0 0 0 0 2.667zM6.667 8a1.333 1.333 0 1 0 0-2.667 1.333 1.333 0 0 0 0 2.667zM6.667 17.333a1.333 1.333 0 1 0 0-2.667 1.333 1.333 0 0 0 0 2.667zM6.667 26.667a1.333 1.333 0 1 0 0-2.667 1.333 1.333 0 0 0 0 2.667z"/>
    </symbol>
    <symbol id="icon-search" viewBox="0 0 32 32">
      <path stroke-linejoin="round" stroke-linecap="round" stroke-width="2.667" d="m28 28-8-8m2.667-6.667a9.333 9.333 0 1 1-18.666 0 9.333 9.333 0 1 1 18.666 0z"/>
    </symbol>
    <symbol id="icon-mic" viewBox="0 0 32 32">
      <path d="M15 22a5 5 0 0 0 5-5V5a5 5 0 0 0-10 0v12a5 5 0 0 0 5 5zm7-8v3a7 7 0 1 1-14 0v-3H6v3a9 9 0 0 0 8 8.944V30h-4v2h10v-2h-4v-4.056A9 9 0 0 0 24 17v-3h-2z"/>
    </symbol>
    <symbol id="icon-keyboard" viewBox="0 0 36 32">
      <path d="M34 4H2C.9 4 0 4.9 0 6v20c0 1.1.9 2 2 2h32c1.1 0 2-.9 2-2V6c0-1.1-.9-2-2-2zM20 8h4v4h-4V8zm6 6v4h-4v-4h4zM14 8h4v4h-4V8zm6 6v4h-4v-4h4zM8 8h4v4H8V8zm6 6v4h-4v-4h4zM4 8h2v4H4V8zm0 6h4v4H4v-4zm2 10H4v-4h2v4zm18 0H8v-4h16v4zm8 0h-6v-4h6v4zm0-6h-4v-4h4v4zm0-6h-6V8h6v4z"/>
    </symbol>
  </defs>
</svg>
